# xmcd
#
# Track frame offsets:
#	150
#	6344
#	21026
#	33090
#	51015
#	87395
#	104804
#	117081
#	128311
#	152361
#	162439
#	176939
#
# Disc length: 2569 seconds
#
# Revision: 2
# Processed by: cddbd v1.5.1PL2 Copyright (c) Steve Scherf et al.
# Submitted via: audiograbber 1.83.01
#
DISCID=8d0a070c
DTITLE=BACCASSINO ANDREA - ALZAMENE IL BRODO
DYEAR=2005
DGENRE=Humour
TTITLE0=SULU 'UCI
TTITLE1=SPUNTA LU MIERU INTRA 'LL'OTTE
TTITLE2=NESSUNO MI PUO' 'CCUMPAGNARE
TTITLE3=FULARI E CRAGGIOPPE
TTITLE4=MEDLEY TI LU INTUNICATORE
TTITLE5=TU MI RUBBI L'ANDITA
TTITLE6=MENA SBATTIME L'OE!
TTITLE7=TETTA
TTITLE8=BRUTTA STROPPIA
TTITLE9=IESTITE
TTITLE10=LU SEMIASSE NON BALE
TTITLE11=NARDO' NARDO'
EXTD=
EXTT0=
EXTT1=
EXTT2=
EXTT3=
EXTT4=
EXTT5=
EXTT6=
EXTT7=
EXTT8=
EXTT9=
EXTT10=
EXTT11=
PLAYORDER=
